#!OML:ASF E:/inclinewalkrobotboard/Project1/Captureday1/Session1/subject1.ASF
:FULLY-SPECIFIED
:DEGREES
263
root 0 0 0 -2.364904623701318 -31.555729455391845 0.8107369294963782
lowerback 13.426789145891139 0.6887052864827118 1.76516028245083
upperback 2.6179084510867887 0.9370636273102844 0.7261159317284356
thorax -4.63533766076641 0.42586275054721057 -0.4032528608850277
lowerneck -10.83173820127801 -1.8778760788454059 -4.07538044000588
upperneck 0.5397379426361457 -1.9271058161867074 3.699359696422624
head 2.079001817510375 -0.9596465858754425 1.7226487107279962
rclavicle -3.4506878308704588E-15 1.7259410279339074E-16
rhumerus -9.467813996764551 -1.6467692653221615 -70.36112678589578
rradius 11.007814976244752
rwrist 42.01537162117008
rhand -6.225912039981067 19.740988859823577
rfingers 7.125020000000034
rthumb 19.57704905194734 -9.928655733532807
lclavicle -3.3981792120250987E-15 1.1075843241309496E-15
lhumerus -28.635199007450243 -54.51551669939784 103.25848177931094
lradius 103.41336172288761
lwrist 17.747196956524213
lhand -4.22634754713992 36.19936157170885
lfingers 7.109246393690086
lthumb 21.615619916985008 56.60786626061574
rfemur -30.733084378604175 4.772442121754018 9.737331883209665
rtibia 55.54957573537607
rfoot -4.911596329965565 -9.444511518686003
rtoes -3.032920606917891
lfemur -26.950524461418258 1.0189896775388614 -10.424271132545424
ltibia 55.06197092815008
lfoot -6.721320375065853 -0.8336826489761702
ltoes -10.12077338745646
264
root 0 0 0 -1.9817148192527783 -30.817181031595254 0.7138081580377812
lowerback 13.602611318542662 0.8038415684624534 1.7749471289862606
upperback 2.730301699081462 1.0785218284171507 0.6527727474962335
thorax -4.616284840968382 0.49536398341005006 -0.5005289402974404
lowerneck -10.593350676118025 -1.9217353052253379 -4.1027986075176965
upperneck 0.5846338660877421 -1.9858427659374385 3.779577068668636
head 2.070436015824311 -0.9875491435669603 1.7563771790942038
rclavicle -3.4519799488774803E-15 1.6527956246327586E-16
rhumerus -9.766310140002657 -1.4566457908390031 -70.51290290870875
rradius 10.75311800031104
rwrist 42.15550769391106
rhand -6.063917069622711 19.836729362418694
rfingers 7.125020000000034
rthumb 19.733501126731333 -9.832806512697282
lclavicle -3.4997569739913558E-15 1.13664796803189E-15
lhumerus -29.984709266698935 -55.104681769986634 104.19911112947209
lradius 102.63849275527039
lwrist 16.638973449996556
lhand -3.5566472388228636 35.98245902955917
lfingers 7.108113400585942
lthumb 22.258056706739346 56.68970376999304
rfemur -29.98639995594406 4.827207580195736 10.138490928824405
rtibia 54.92445112153535
rfoot -5.532540861060408 -9.831804090730765
rtoes -3.027510717328887
lfemur -27.207803215019933 1.3581486567502887 -10.441459363721506
ltibia 55.73261740329118
lfoot -7.004913393669731 -0.82038488684399
ltoes -10.287826422781812
265
root 0 0 0 -1.6278420098149775 -30.22665124438329 0.6469655294868484
lowerback 13.820887016726473 0.8897947161465543 1.7447282510009259
upperback 2.8595081167940735 1.1770671234951902 0.5908634340245118
thorax -4.602744226588491 0.5437225592312173 -0.5599273848925188
lowerneck -10.315705836392695 -2.003865175440455 -4.173222550202087
upperneck 0.5471471726855786 -2.098125386943304 3.9339832215762867
head 2.031905883495288 -1.0432255849522694 1.8175605211118004
rclavicle -3.446211234110349E-15 1.538532733402265E-16
rhumerus -9.966074241594077 -1.3741736259909043 -70.59805942194933
rradius 10.511089281294772
rwrist 42.3027261147285
rhand -5.935015104939101 19.93712388395724
rfingers 7.125020000000034
rthumb 19.857724300282996 -9.733152007278267
lclavicle -3.513329254325502E-15 1.1440491565375257E-15
lhumerus -30.448462016645696 -55.36933695329978 104.54840991807771
lradius 102.46454693134685
lwrist 16.31643867751151
lhand -3.3257361832904504 35.928742511845044
lfingers 7.107746879655102
lthumb 22.48007656860962 56.70432240118947
rfemur -29.247198646874644 4.891315369075977 10.526068471261707
rtibia 54.281693272133694
rfoot -6.2071410418152295 -10.243407180131872
rtoes -3.06367651173934
lfemur -27.052093821760614 1.5080221566661782 -10.527859907092617
ltibia 55.78592362123659
lfoot -7.369715888540246 -0.6136550818586137
ltoes -10.307333371374286
266
root 0 0 0 -1.305335924357443 -29.779074264908623 0.6042482964449911
lowerback 14.078887431882613 0.9465329491051654 1.6828333256680186
upperback 2.99985107671873 1.2338610743941385 0.5436062072927101
thorax -4.599125321568957 0.5714464398954444 -0.5829977073921284
lowerneck -10.020779734094948 -2.1234121400677037 -4.279061317211045
upperneck 0.42803933666905714 -2.261758526447097 4.152080813110109
head 1.9666417182307105 -1.125175288505107 1.901122175130625
rclavicle -3.4371615710072954E-15 1.3938828471771514E-16
rhumerus -10.041266765092434 -1.4362092189070061 -70.59568225495231
rradius 10.262965786995721
rwrist 42.475264436483236
rhand -5.84088975047851 20.052263219321823
rfingers 7.125020000000034
rthumb 19.948173839216444 -9.620011782197132
lclavicle -3.470362535785444E-15 1.1353356554439473E-15
lhumerus -30.404602032175127 -55.42454105114005 104.54950897437604
lradius 102.60916097811801
lwrist 16.426413923700807
lhand -3.3479795251161715 35.962130764130094
lfingers 7.107782666801895
lthumb 22.459245743574627 56.68138425923779
rfemur -28.630879677411965 4.917937362477019 10.857414459288051
rtibia 53.7535847599371
rfoot -6.823784351598638 -10.646451217745376
rtoes -3.106192112073031
lfemur -26.795083535616946 1.5785348269928403 -10.624824132619192
ltibia 55.659775287813005
lfoot -7.699897892349417 -0.4005423100765775
ltoes -10.29391768291405
